<svg xmlns="http://www.w3.org/2000/svg" viewBox="0 0 474.121 146.015">
  <g paint-order="markers fill stroke">
    <g transform="translate(-18.94 -212.855)">
      <path fill="#3600ad" d="M221.795 212.855c-9.468 0-17.206 2.331-23.213 6.993-6.007 4.661-9.012 10.598-9.012 17.806 0 3.749.602 6.991 1.803 9.73 1.202 2.692 3.052 5.071 5.55 7.137 2.5 2.067 5.672 3.87 9.516 5.409 3.893 1.49 8.675 2.906 14.346 4.252 5.671 1.345 9.684 2.859 12.04 4.54 2.354 1.683 3.53 3.918 3.53 6.706 0 2.547-1.103 4.589-3.314 6.127-2.163 1.538-5.119 2.306-8.867 2.306-5.527 0-9.685-.984-12.473-2.955-2.74-1.97-4.107-5.19-4.107-9.66h-20.906c0 5.72 1.513 10.67 4.54 14.852 3.076 4.18 7.426 7.4 13.05 9.658 5.622 2.259 11.918 3.389 18.886 3.389 10.237 0 18.31-2.163 24.22-6.489 5.912-4.373 8.868-10.307 8.868-17.804 0-7.353-2.427-13.193-7.281-17.518-4.806-4.325-12.807-7.713-24.004-10.164-5.575-1.394-9.564-2.836-11.967-4.326-2.403-1.538-3.605-3.532-3.605-5.983 0-2.45 1.154-4.495 3.46-6.129 2.307-1.634 5.312-2.45 9.012-2.45 4.181 0 7.496 1.034 9.947 3.1 2.5 2.067 3.749 4.638 3.749 7.714h20.833c0-8.122-3.196-14.514-9.587-19.176-6.344-4.71-14.681-7.065-25.014-7.065zM18.939 214.01v16.867h26.745v67.113H66.59v-67.113h27.248V214.01zm110.51 0-33.232 83.98h20.906c42.006-113.473-40.555 109.273 22.059-59.687 20.555 55.088 7.717 20.565 22.347 59.687h21.05l-33.52-83.98zm139.274 0v83.98h20.906v-22.345l9.156-9.012 20.4 31.357h24.655l-30.926-46.28 30.133-37.7H316.95l-20.258 25.517-7.064 9.516V214.01zm81.027 0v83.98h61.707v-16.722h-40.8v-18.239h34.673v-16.797h-34.674v-15.355h40.873V214.01zm71.15 0v83.98h20.907v-28.978h13.048l15.715 28.978h22.49v-.863l-19.03-33.666c5.574-2.451 9.587-5.599 12.038-9.443 2.5-3.893 3.748-8.819 3.748-14.778 0-8.026-2.978-14.226-8.937-18.6-5.96-4.42-14.274-6.63-24.943-6.63zm20.907 16.867h13.552c9.083 0 13.625 3.533 13.625 10.598 0 7.16-4.35 10.74-13.048 10.74h-14.13z" font-family="Roboto" font-size="147.636" font-weight="700" letter-spacing="0" style="line-height:.7;-inkscape-font-specification:&quot;Roboto, Bold&quot;;font-variant-ligatures:discretionary-ligatures;font-variant-caps:all-small-caps" word-spacing="0"/>
      <ellipse cx="139.182" cy="283.068" fill="#00ae79" rx="13.352" ry="13.333"/>
    </g>
    <path fill="#00ae79" d="m341.373 304.261 15.797 39.516 15.656-39.516h14.906v54.61H376.39v-14.766l1.172-26.719-16.5 41.485h-7.875l-16.454-41.25 1.172 26.484v14.766h-11.343v-54.61zm69.516 54.61h-11.344v-54.61h11.344zm59.062 0h-11.344l-24.562-37.266v37.266h-11.39v-54.61h11.39l24.562 37.313V304.26h11.344zm23.11 0h-11.344v-54.61h11.344z" aria-label="Mini" font-family="Roboto" font-size="96" font-weight="500" letter-spacing="0" style="line-height:.7;-inkscape-font-specification:&quot;Roboto, Medium&quot;;font-variant-ligatures:discretionary-ligatures;font-variant-caps:all-small-caps" transform="translate(-18.94 -212.855)" word-spacing="0"/>
  </g>
</svg>
